<svg width="1302" height="295" viewBox="0 0 1302 295" fill="none" xmlns="http://www.w3.org/2000/svg">
<path d="M2 325.557C2 325.557 194.235 179.238 275.671 140.461C357.108 101.684 413.061 159.591 496.714 140.461C580.366 121.331 671.775 17.9257 726.066 2.41489C780.357 -13.0959 767.615 103.235 840.742 140.461C913.869 177.688 1018.57 282.644 1122.72 262.997C1226.87 243.35 1300 325.557 1300 325.557H2Z" fill="#89A1A9" stroke="black"></path>
<path d="M80.6667 329.83C80.6667 329.83 249.518 201.164 321.049 167.066C392.58 132.967 441.727 183.888 515.204 167.066C588.681 150.244 668.971 59.3139 716.658 45.6745C764.345 32.035 753.153 134.331 817.385 167.066C881.617 199.8 973.585 292.094 1065.07 274.817C1156.55 257.54 1220.78 329.83 1220.78 329.83H80.6667Z" fill="#546A76" stroke="black"></path>
<path d="M159.333 335C159.333 335 305.048 224.049 366.777 194.645C428.506 165.242 470.919 209.151 534.328 194.645C597.736 180.14 667.024 101.729 708.177 89.9677C749.33 78.2061 739.671 166.418 795.102 194.645C850.532 222.873 929.898 302.46 1008.84 287.562C1087.79 272.664 1143.22 335 1143.22 335H159.333Z" fill="black" stroke="black"></path>
</svg>
