<svg width="300" height="300" viewBox="0 0 300 300" fill="none" xmlns="http://www.w3.org/2000/svg">
<path d="M300 0H6.10352e-05V298.251H300V0Z" fill="url(#paint0_linear_7_4)"/>
<path d="M224.737 215.598C222.864 251.785 272.191 261.527 290.293 282.458C297.313 290.576 288.315 299.85 277.584 299.66L19.6464 295.1C8.74023 294.907 -3.05176e-05 286.011 -3.05176e-05 275.103V17.2444C-3.05176e-05 13.0341 3.41309 9.62097 7.62335 9.62097C8.25717 9.62097 8.92004 9.70388 9.52969 9.8772C51.846 21.9074 13.5276 98.3027 39.4577 82.653C65.5795 66.8877 87.2317 88.7437 97.7865 120.7C108.341 152.656 141.522 140.835 135.529 177.114C129.535 213.393 227.06 170.718 224.737 215.598Z" fill="#FAD4D8"/>
<path d="M203.965 219.665C202.29 253.611 245.741 263.108 262.72 282.447C269.819 290.532 260.829 299.842 250.071 299.642L19.6698 295.369C8.77051 295.167 0.0406494 286.274 0.0406494 275.373V30.4963C0.0406494 26.6959 3.12143 23.6151 6.92178 23.6151C7.52075 23.6151 8.14557 23.6966 8.71936 23.8684C47.0661 35.3493 12.322 108.019 35.8442 93.1276C59.5469 78.122 79.1938 98.9247 88.7711 129.341C98.3484 159.757 128.456 148.505 123.018 183.036C117.579 217.566 206.073 176.949 203.965 219.665Z" fill="#88A0A8"/>
<path d="M197.546 233.965C195.961 266.1 235.758 267.721 252.753 282.107C260.856 288.966 251.925 298.688 241.309 298.688H20.0404C8.99471 298.688 0.0404053 289.734 0.0404053 278.688V43.9229C0.0404053 42.6564 1.71292 42.2008 2.35526 43.2924C2.5209 43.5739 2.80753 43.7823 3.12164 43.8718C40.8554 54.6197 10.6476 122.921 33.4937 108.455C56.4414 93.924 73.9723 100.43 83.2446 129.883C92.5169 159.337 114.033 163.742 108.768 197.18C103.503 230.618 199.587 192.6 197.546 233.965Z" fill="#C0E3BB"/>
<defs>
<linearGradient id="paint0_linear_7_4" x1="150" y1="0" x2="150" y2="298.251" gradientUnits="userSpaceOnUse">
<stop stop-color="#DBD3C9"/>
<stop offset="1" stop-color="#DBD3C9" stop-opacity="0"/>
</linearGradient>
</defs>
</svg>
