<svg width="300" height="300" viewBox="0 0 300 300" fill="none" xmlns="http://www.w3.org/2000/svg">
<path d="M0 0H300V298.251H0V0Z" fill="url(#paint0_linear_16_44)"/>
<path d="M75.2628 215.598C77.1359 251.785 27.8091 261.527 9.70703 282.458C2.68693 290.576 11.6854 299.85 22.4156 299.66L280.354 295.1C291.26 294.907 300 286.011 300 275.103V17.2444C300 13.0341 296.587 9.62097 292.377 9.62097C291.743 9.62097 291.08 9.70388 290.47 9.8772C248.154 21.9074 286.472 98.3027 260.542 82.653C234.42 66.8877 212.768 88.7437 202.214 120.7C191.659 152.656 158.478 140.835 164.471 177.114C170.465 213.393 72.9397 170.718 75.2628 215.598Z" fill="#FAD4D8"/>
<path d="M96.035 219.665C97.7101 253.611 54.2595 263.108 37.2798 282.447C30.1808 290.532 39.1714 299.842 49.9291 299.642L280.33 295.369C291.229 295.167 299.959 286.274 299.959 275.373V30.4962C299.959 26.6959 296.879 23.6151 293.078 23.6151C292.479 23.6151 291.854 23.6966 291.281 23.8684C252.934 35.3493 287.678 108.019 264.156 93.1276C240.453 78.122 220.806 98.9247 211.229 129.341C201.652 159.757 171.544 148.505 176.982 183.036C182.421 217.566 93.9271 176.949 96.035 219.665Z" fill="#DBD3C9"/>
<path d="M102.454 233.965C104.495 275.329 37.9654 266.135 39.7678 298.688H299.96V39.3585L297.386 43.7317C258.875 54.0101 289.454 122.985 266.506 108.455C243.559 93.924 226.028 100.43 216.755 129.883C207.483 159.337 185.967 163.742 191.232 197.18C196.497 230.618 100.413 192.6 102.454 233.965Z" fill="#89A1A9"/>
<defs>
<linearGradient id="paint0_linear_16_44" x1="150" y1="0" x2="150" y2="298.251" gradientUnits="userSpaceOnUse">
<stop stop-color="#546A76"/>
<stop offset="1" stop-color="#546A76" stop-opacity="0"/>
</linearGradient>
</defs>
</svg>
