<svg width="422" height="442" viewBox="0 0 422 442" fill="none" xmlns="http://www.w3.org/2000/svg">
<path d="M421.536 2C421.536 2 371.887 82.7627 321.61 124.249C282.58 156.455 229.597 155.173 206.711 195.076C195.933 213.868 204.269 227.644 193.691 246.498C179.213 272.305 149.911 280.411 119.804 289.251C94.7851 296.597 69.2102 304.45 51.1256 323.389C15.1192 361.097 0.999833 442 0.999833 442L421.536 442L421.536 2Z" fill="#88A0A8" stroke="black"/>
<path d="M421.536 34.7755C421.536 34.7755 375.586 109.522 329.054 147.918C292.932 177.725 243.896 176.538 222.715 213.469C212.74 230.861 220.455 243.611 210.665 261.061C197.266 284.945 170.147 292.448 142.283 300.629C119.128 307.428 95.458 314.696 78.7207 332.224C45.3967 367.124 32.3292 442 32.3292 442L421.536 442L421.536 34.7755Z" fill="#546A76" stroke="black"/>
<path d="M421.536 69.7959C421.536 69.7959 379.569 138.115 337.071 173.209C304.08 200.452 259.295 199.367 239.95 233.123C230.84 249.019 237.886 260.672 228.945 276.622C216.707 298.452 191.939 305.309 166.491 312.787C145.343 319.001 123.725 325.644 108.438 341.665C78.0032 373.563 66.0684 442 66.0684 442L421.536 442L421.536 69.7959Z" fill="#88A0A8" stroke="black"/>
<path d="M421.659 95.4799C421.659 95.4799 382.593 159.084 343.031 191.757C312.32 217.12 270.629 216.11 252.621 247.536C244.141 262.335 250.7 273.185 242.377 288.033C230.984 308.357 207.928 314.741 184.238 321.703C164.551 327.488 144.427 333.673 130.197 348.589C101.865 378.285 90.7549 442 90.7549 442L421.659 442L421.659 95.4799Z" fill="black" stroke="black"/>
</svg>
