<svg width="422" height="437" viewBox="0 0 422 437" fill="none" xmlns="http://www.w3.org/2000/svg">
<path d="M421.536 435C421.536 435 371.887 354.237 321.61 312.751C282.58 280.545 229.597 281.827 206.711 241.924C195.933 223.132 204.269 209.356 193.691 190.502C179.213 164.695 149.911 156.589 119.804 147.749C94.7851 140.403 69.2102 132.55 51.1256 113.611C15.1192 75.9029 0.999833 -5 0.999833 -5L421.536 -5L421.536 435Z" fill="#88A0A8" stroke="black"/>
<path d="M421.536 402.224C421.536 402.224 375.586 327.478 329.054 289.082C292.932 259.275 243.896 260.462 222.715 223.531C212.74 206.139 220.455 193.389 210.665 175.939C197.266 152.055 170.147 144.552 142.283 136.371C119.128 129.572 95.458 122.304 78.7207 104.776C45.3967 69.8765 32.3292 -5 32.3292 -5L421.536 -5L421.536 402.224Z" fill="#546A76" stroke="black"/>
<path d="M421.536 367.204C421.536 367.204 379.569 298.885 337.071 263.791C304.08 236.548 259.295 237.633 239.95 203.877C230.84 187.981 237.886 176.328 228.945 160.378C216.707 138.548 191.939 131.691 166.491 124.213C145.343 117.999 123.725 111.356 108.438 95.3351C78.0032 63.4372 66.0684 -5 66.0684 -5L421.536 -5L421.536 367.204Z" fill="#88A0A8" stroke="black"/>
<path d="M421.659 341.52C421.659 341.52 382.593 277.916 343.031 245.243C312.32 219.88 270.629 220.89 252.621 189.464C244.141 174.665 250.7 163.815 242.377 148.967C230.984 128.643 207.928 122.259 184.238 115.297C164.551 109.512 144.427 103.327 130.197 88.4114C101.865 58.7147 90.7549 -5 90.7549 -5L421.659 -5L421.659 341.52Z" fill="black" stroke="black"/>
</svg>
