<svg width="423" height="437" viewBox="0 0 423 437" fill="none" xmlns="http://www.w3.org/2000/svg">
<path d="M1.12354 435C1.12354 435 50.772 354.237 101.05 312.751C140.08 280.545 193.062 281.827 215.948 241.924C226.726 223.132 218.39 209.356 228.968 190.502C243.446 164.695 272.748 156.589 302.855 147.749C327.874 140.403 353.449 132.55 371.534 113.611C407.54 75.9029 421.659 -5 421.659 -5L1.12354 -5L1.12354 435Z" fill="#88A0A8" stroke="black"/>
<path d="M1.12354 402.224C1.12354 402.224 47.0733 327.478 93.6053 289.082C129.727 259.275 178.763 260.462 199.944 223.531C209.919 206.139 202.204 193.389 211.994 175.939C225.394 152.055 252.513 144.552 280.376 136.371C303.532 129.572 327.201 122.304 343.939 104.776C377.262 69.8765 390.33 -5 390.33 -5L1.12354 -5L1.12354 402.224Z" fill="#546A76" stroke="black"/>
<path d="M1.12354 367.204C1.12354 367.204 43.09 298.885 85.5883 263.791C118.579 236.548 163.364 237.633 182.709 203.877C191.819 187.981 184.773 176.328 193.714 160.378C205.952 138.548 230.72 131.691 256.169 124.213C277.317 117.999 298.934 111.356 314.221 95.3351C344.656 63.4372 356.591 -5 356.591 -5L1.12354 -5L1.12354 367.204Z" fill="#88A0A8" stroke="black"/>
<path d="M1 341.52C1 341.52 40.0666 277.916 79.6282 245.243C110.339 219.88 152.03 220.89 170.038 189.464C178.518 174.665 171.959 163.815 180.283 148.967C191.675 128.643 214.732 122.259 238.421 115.297C258.108 109.512 278.232 103.327 292.462 88.4114C320.794 58.7147 331.904 -5 331.904 -5L1 -5L1 341.52Z" fill="black" stroke="black"/>
</svg>
