<svg width="423" height="442" viewBox="0 0 423 442" fill="none" xmlns="http://www.w3.org/2000/svg">
<path d="M1.12354 2C1.12354 2 50.772 82.7627 101.05 124.249C140.08 156.455 193.062 155.173 215.948 195.076C226.726 213.868 218.39 227.644 228.968 246.498C243.446 272.305 272.748 280.411 302.855 289.251C327.874 296.597 353.449 304.45 371.534 323.389C407.54 361.097 421.659 442 421.659 442L1.12354 442L1.12354 2Z" fill="#88A0A8" stroke="black"/>
<path d="M1.12354 34.7755C1.12354 34.7755 47.0733 109.522 93.6053 147.918C129.727 177.725 178.763 176.538 199.944 213.469C209.919 230.861 202.204 243.611 211.994 261.061C225.394 284.945 252.513 292.448 280.376 300.629C303.532 307.428 327.201 314.696 343.939 332.224C377.262 367.124 390.33 442 390.33 442L1.12354 442L1.12354 34.7755Z" fill="#546A76" stroke="black"/>
<path d="M1.12354 69.7959C1.12354 69.7959 43.09 138.115 85.5883 173.209C118.579 200.452 163.364 199.367 182.709 233.123C191.819 249.019 184.773 260.672 193.714 276.622C205.952 298.452 230.72 305.309 256.169 312.787C277.317 319.001 298.934 325.644 314.221 341.665C344.656 373.563 356.591 442 356.591 442L1.12354 442L1.12354 69.7959Z" fill="#88A0A8" stroke="black"/>
<path d="M1 95.4799C1 95.4799 40.0666 159.084 79.6282 191.757C110.339 217.12 152.03 216.11 170.038 247.536C178.518 262.335 171.959 273.185 180.283 288.033C191.675 308.357 214.732 314.741 238.421 321.703C258.108 327.488 278.232 333.673 292.462 348.589C320.794 378.285 331.904 442 331.904 442L1 442L1 95.4799Z" fill="black" stroke="black"/>
</svg>
